<svg width="27" height="31" viewBox="0 0 27 31" fill="none" xmlns="http://www.w3.org/2000/svg">
<g clip-path="url(#clip0_101_5)">
<path d="M23.5384 23.1051C22.5034 22.0104 20.5668 20.3635 20.5668 14.9688C20.5668 10.8713 17.6482 7.59121 13.7129 6.78648V5.6875C13.7129 4.75568 12.9457 4 11.9997 4C11.0536 4 10.2865 4.75568 10.2865 5.6875V6.78648C6.3511 7.59121 3.43253 10.8713 3.43253 14.9688C3.43253 20.3635 1.49592 22.0104 0.460921 23.1051C0.139492 23.4453 -0.00300774 23.8519 -0.000329172 24.25C0.00556368 25.1148 0.695028 25.9375 1.71931 25.9375H22.28C23.3043 25.9375 23.9943 25.1148 23.9997 24.25C24.0023 23.8519 23.8598 23.4447 23.5384 23.1051ZM3.61735 23.4062C4.75413 21.9313 5.99699 19.4865 6.00288 14.9993C6.00288 14.9888 5.99967 14.9793 5.99967 14.9688C5.99967 11.7066 8.68574 9.0625 11.9997 9.0625C15.3136 9.0625 17.9997 11.7066 17.9997 14.9688C17.9997 14.9793 17.9965 14.9888 17.9965 14.9993C18.0023 19.487 19.2452 21.9318 20.382 23.4062H3.61735ZM11.9997 31C13.8918 31 15.4266 29.4892 15.4266 27.625H8.57271C8.57271 29.4892 10.1075 31 11.9997 31Z" fill="#F1F1F1"/>
</g>
<circle cx="24" cy="3" r="2.75" fill="#ED4B40" stroke="#F1F1F1" stroke-width="0.5"/>
<defs>
<clipPath id="clip0_101_5">
<rect width="24" height="27" fill="white" transform="translate(0 4)"/>
</clipPath>
</defs>
</svg>
